<?xml version="1.0" encoding="utf-8" standalone="no"?>
<!DOCTYPE svg PUBLIC "-//W3C//DTD SVG 1.1//EN"
  "http://www.w3.org/Graphics/SVG/1.1/DTD/svg11.dtd">
<svg xmlns:xlink="http://www.w3.org/1999/xlink" width="489.6pt" height="360pt" viewBox="0 0 489.6 360" xmlns="http://www.w3.org/2000/svg" version="1.1">
 <metadata>
  <rdf:RDF xmlns:dc="http://purl.org/dc/elements/1.1/" xmlns:cc="http://creativecommons.org/ns#" xmlns:rdf="http://www.w3.org/1999/02/22-rdf-syntax-ns#">
   <cc:Work>
    <dc:type rdf:resource="http://purl.org/dc/dcmitype/StillImage"/>
    <dc:date>2026-07-09T22:48:14.848987</dc:date>
    <dc:format>image/svg+xml</dc:format>
    <dc:creator>
     <cc:Agent>
      <dc:title>Matplotlib v3.11.0, https://matplotlib.org/</dc:title>
     </cc:Agent>
    </dc:creator>
   </cc:Work>
  </rdf:RDF>
 </metadata>
 <defs>
  <style type="text/css">*{stroke-linejoin: round; stroke-linecap: butt}</style>
 </defs>
 <g id="figure_1">
  <g id="patch_1">
   <path d="M 0 360 
L 489.6 360 
L 489.6 0 
L 0 0 
z
" style="fill: #ffffff"/>
  </g>
  <g id="axes_1">
   <g id="patch_2">
    <path d="M 68.92 331.545703 
L 478.8 331.545703 
L 478.8 28.32 
L 68.92 28.32 
z
" style="fill: #ffffff"/>
   </g>
   <g id="patch_3">
    <path d="M 68.92 317.762717 
L 438.934645 317.762717 
L 438.934645 305.53208 
L 68.92 305.53208 
z
" clip-path="url(#p7756e11e22)" style="fill: #4e79a7"/>
   </g>
   <g id="patch_4">
    <path d="M 68.92 298.946353 
L 392.53962 298.946353 
L 392.53962 286.715716 
L 68.92 286.715716 
z
" clip-path="url(#p7756e11e22)" style="fill: #f28e2b"/>
   </g>
   <g id="patch_5">
    <path d="M 68.92 280.129989 
L 391.394064 280.129989 
L 391.394064 267.899352 
L 68.92 267.899352 
z
" clip-path="url(#p7756e11e22)" style="fill: #e15759"/>
   </g>
   <g id="patch_6">
    <path d="M 68.92 261.313625 
L 390.534897 261.313625 
L 390.534897 249.082989 
L 68.92 249.082989 
z
" clip-path="url(#p7756e11e22)" style="fill: #76b7b2"/>
   </g>
   <g id="patch_7">
    <path d="M 68.92 242.497261 
L 388.673368 242.497261 
L 388.673368 230.266625 
L 68.92 230.266625 
z
" clip-path="url(#p7756e11e22)" style="fill: #59a14f"/>
   </g>
   <g id="patch_8">
    <path d="M 68.92 223.680897 
L 383.518365 223.680897 
L 383.518365 211.450261 
L 68.92 211.450261 
z
" clip-path="url(#p7756e11e22)" style="fill: #edc948"/>
   </g>
   <g id="patch_9">
    <path d="M 68.92 204.864534 
L 336.407367 204.864534 
L 336.407367 192.633897 
L 68.92 192.633897 
z
" clip-path="url(#p7756e11e22)" style="fill: #b07aa1"/>
   </g>
   <g id="patch_10">
    <path d="M 68.92 186.04817 
L 312.207493 186.04817 
L 312.207493 173.817533 
L 68.92 173.817533 
z
" clip-path="url(#p7756e11e22)" style="fill: #ff9da7"/>
   </g>
   <g id="patch_11">
    <path d="M 68.92 167.231806 
L 306.050129 167.231806 
L 306.050129 155.001169 
L 68.92 155.001169 
z
" clip-path="url(#p7756e11e22)" style="fill: #9c755f"/>
   </g>
   <g id="patch_12">
    <path d="M 68.92 148.415442 
L 283.854978 148.415442 
L 283.854978 136.184806 
L 68.92 136.184806 
z
" clip-path="url(#p7756e11e22)" style="fill: #bab0ac"/>
   </g>
   <g id="patch_13">
    <path d="M 68.92 129.599078 
L 276.408862 129.599078 
L 276.408862 117.368442 
L 68.92 117.368442 
z
" clip-path="url(#p7756e11e22)" style="fill: #86bcb6"/>
   </g>
   <g id="patch_14">
    <path d="M 68.92 110.782714 
L 273.401778 110.782714 
L 273.401778 98.552078 
L 68.92 98.552078 
z
" clip-path="url(#p7756e11e22)" style="fill: #d37295"/>
   </g>
   <g id="patch_15">
    <path d="M 68.92 91.966351 
L 250.920238 91.966351 
L 250.920238 79.735714 
L 68.92 79.735714 
z
" clip-path="url(#p7756e11e22)" style="fill: #8cd17d"/>
   </g>
   <g id="patch_16">
    <path d="M 68.92 73.149987 
L 250.06107 73.149987 
L 250.06107 60.91935 
L 68.92 60.91935 
z
" clip-path="url(#p7756e11e22)" style="fill: #b6992d"/>
   </g>
   <g id="patch_17">
    <path d="M 68.92 54.333623 
L 246.051624 54.333623 
L 246.051624 42.102987 
L 68.92 42.102987 
z
" clip-path="url(#p7756e11e22)" style="fill: #499894"/>
   </g>
   <g id="matplotlib.axis_1">
    <g id="xtick_1">
     <g id="line2d_1">
      <defs>
       <path id="m66cd37cb59" d="M 0 0 
L 0 3.5 
" style="stroke: #000000; stroke-width: 0.8"/>
      </defs>
      <g>
       <use xlink:href="#m66cd37cb59" x="68.92" y="331.545703" style="stroke: #000000; stroke-width: 0.8"/>
      </g>
     </g>
     <g id="text_1">
      <!-- 0 -->
      <g transform="translate(65.987969 346.66582) scale(0.1 -0.1)">
       <defs>
        <path id="MicrosoftYaHei-16" d="M 284 2325 
Q 284 3606 709 4264 
Q 1134 4922 1941 4922 
Q 3478 4922 3478 2441 
Q 3478 1216 3045 567 
Q 2613 -81 1831 -81 
Q 1094 -81 689 534 
Q 284 1150 284 2325 
z
M 909 2353 
Q 909 425 1888 425 
Q 2850 425 2850 2384 
Q 2850 4413 1906 4413 
Q 909 4413 909 2353 
z
" transform="scale(0.015625)"/>
       </defs>
       <use xlink:href="#MicrosoftYaHei-16"/>
      </g>
     </g>
    </g>
    <g id="xtick_2">
     <g id="line2d_2">
      <g>
       <use xlink:href="#m66cd37cb59" x="140.517261" y="331.545703" style="stroke: #000000; stroke-width: 0.8"/>
      </g>
     </g>
     <g id="text_2">
      <!-- 500 -->
      <g transform="translate(131.721167 346.66582) scale(0.1 -0.1)">
       <defs>
        <path id="MicrosoftYaHei-1b" d="M 3294 1494 
Q 3294 784 2823 350 
Q 2353 -84 1559 -84 
Q 878 -84 544 119 
L 544 744 
Q 1034 425 1544 425 
Q 2050 425 2361 704 
Q 2672 984 2672 1447 
Q 2672 1909 2348 2167 
Q 2025 2425 1434 2425 
Q 978 2425 613 2384 
L 791 4841 
L 3053 4841 
L 3053 4303 
L 1306 4303 
L 1206 2931 
L 1647 2950 
Q 2416 2950 2855 2567 
Q 3294 2184 3294 1494 
z
" transform="scale(0.015625)"/>
       </defs>
       <use xlink:href="#MicrosoftYaHei-1b"/>
       <use xlink:href="#MicrosoftYaHei-16" transform="translate(58.640625 0)"/>
       <use xlink:href="#MicrosoftYaHei-16" transform="translate(117.28125 0)"/>
      </g>
     </g>
    </g>
    <g id="xtick_3">
     <g id="line2d_3">
      <g>
       <use xlink:href="#m66cd37cb59" x="212.114522" y="331.545703" style="stroke: #000000; stroke-width: 0.8"/>
      </g>
     </g>
     <g id="text_3">
      <!-- 1000 -->
      <g transform="translate(200.386397 346.66582) scale(0.1 -0.1)">
       <defs>
        <path id="MicrosoftYaHei-17" d="M 1781 0 
L 1781 4141 
Q 1638 3997 1295 3819 
Q 953 3641 663 3569 
L 663 4169 
Q 1047 4275 1484 4508 
Q 1922 4741 2156 4947 
L 2388 4947 
L 2388 0 
L 1781 0 
z
" transform="scale(0.015625)"/>
       </defs>
       <use xlink:href="#MicrosoftYaHei-17"/>
       <use xlink:href="#MicrosoftYaHei-16" transform="translate(58.640625 0)"/>
       <use xlink:href="#MicrosoftYaHei-16" transform="translate(117.28125 0)"/>
       <use xlink:href="#MicrosoftYaHei-16" transform="translate(175.921875 0)"/>
      </g>
     </g>
    </g>
    <g id="xtick_4">
     <g id="line2d_4">
      <g>
       <use xlink:href="#m66cd37cb59" x="283.711783" y="331.545703" style="stroke: #000000; stroke-width: 0.8"/>
      </g>
     </g>
     <g id="text_4">
      <!-- 1500 -->
      <g transform="translate(271.983658 346.66582) scale(0.1 -0.1)">
       <use xlink:href="#MicrosoftYaHei-17"/>
       <use xlink:href="#MicrosoftYaHei-1b" transform="translate(58.640625 0)"/>
       <use xlink:href="#MicrosoftYaHei-16" transform="translate(117.28125 0)"/>
       <use xlink:href="#MicrosoftYaHei-16" transform="translate(175.921875 0)"/>
      </g>
     </g>
    </g>
    <g id="xtick_5">
     <g id="line2d_5">
      <g>
       <use xlink:href="#m66cd37cb59" x="355.309044" y="331.545703" style="stroke: #000000; stroke-width: 0.8"/>
      </g>
     </g>
     <g id="text_5">
      <!-- 2000 -->
      <g transform="translate(343.580919 346.66582) scale(0.1 -0.1)">
       <defs>
        <path id="MicrosoftYaHei-18" d="M 2666 3572 
Q 2666 3963 2419 4186 
Q 2172 4409 1747 4409 
Q 1447 4409 1140 4256 
Q 834 4103 569 3819 
L 569 4413 
Q 806 4659 1107 4790 
Q 1409 4922 1816 4922 
Q 2472 4922 2872 4570 
Q 3272 4219 3272 3619 
Q 3272 3084 3026 2693 
Q 2781 2303 2188 1894 
Q 1581 1475 1376 1294 
Q 1172 1113 1090 947 
Q 1009 781 1009 544 
L 3416 544 
L 3416 0 
L 372 0 
L 372 241 
Q 372 659 486 951 
Q 600 1244 862 1520 
Q 1125 1797 1681 2184 
Q 2250 2584 2458 2886 
Q 2666 3188 2666 3572 
z
" transform="scale(0.015625)"/>
       </defs>
       <use xlink:href="#MicrosoftYaHei-18"/>
       <use xlink:href="#MicrosoftYaHei-16" transform="translate(58.640625 0)"/>
       <use xlink:href="#MicrosoftYaHei-16" transform="translate(117.28125 0)"/>
       <use xlink:href="#MicrosoftYaHei-16" transform="translate(175.921875 0)"/>
      </g>
     </g>
    </g>
    <g id="xtick_6">
     <g id="line2d_6">
      <g>
       <use xlink:href="#m66cd37cb59" x="426.906305" y="331.545703" style="stroke: #000000; stroke-width: 0.8"/>
      </g>
     </g>
     <g id="text_6">
      <!-- 2500 -->
      <g transform="translate(415.17818 346.66582) scale(0.1 -0.1)">
       <use xlink:href="#MicrosoftYaHei-18"/>
       <use xlink:href="#MicrosoftYaHei-1b" transform="translate(58.640625 0)"/>
       <use xlink:href="#MicrosoftYaHei-16" transform="translate(117.28125 0)"/>
       <use xlink:href="#MicrosoftYaHei-16" transform="translate(175.921875 0)"/>
      </g>
     </g>
    </g>
   </g>
   <g id="matplotlib.axis_2">
    <g id="ytick_1">
     <g id="line2d_7">
      <defs>
       <path id="mc823661dfc" d="M 0 0 
L -3.5 0 
" style="stroke: #000000; stroke-width: 0.8"/>
      </defs>
      <g>
       <use xlink:href="#mc823661dfc" x="68.92" y="311.647398" style="stroke: #000000; stroke-width: 0.8"/>
      </g>
     </g>
     <g id="text_7">
      <!-- 1. 发展 -->
      <g transform="translate(30.68875 315.814586) scale(0.1 -0.1)">
       <defs>
        <path id="MicrosoftYaHei-14" d="M 372 322 
Q 372 491 487 606 
Q 603 722 775 722 
Q 950 722 1065 605 
Q 1181 488 1181 322 
Q 1181 159 1065 42 
Q 950 -75 772 -75 
Q 600 -75 486 42 
Q 372 159 372 322 
z
" transform="scale(0.015625)"/>
        <path id="MicrosoftYaHei-3" transform="scale(0.015625)"/>
        <path id="MicrosoftYaHei-547" d="M 944 3909 
L 2266 3909 
Q 2419 4563 2525 5334 
L 3056 5266 
Q 2950 4556 2797 3909 
L 6250 3909 
L 6250 3447 
L 2678 3447 
Q 2566 3034 2431 2653 
L 5531 2653 
L 5531 2222 
Q 5119 1200 4247 456 
Q 5125 -75 6294 -291 
Q 6013 -603 5856 -816 
Q 4856 -484 3844 153 
Q 3031 -381 1519 -859 
Q 1344 -609 1144 -397 
Q 2681 3 3441 450 
Q 2619 1153 2269 2222 
Q 1584 509 406 -591 
Q 238 -353 75 -166 
Q 1484 1106 2147 3447 
L 413 3447 
L 413 3916 
Q 669 4509 881 5109 
L 1388 4972 
Q 1169 4422 944 3909 
z
M 4981 2222 
L 2722 2222 
Q 3003 1356 3838 731 
Q 4647 1400 4981 2222 
z
M 4019 4903 
L 4294 5253 
Q 4906 4866 5469 4447 
L 5131 4041 
Q 4588 4503 4019 4903 
z
" transform="scale(0.015625)"/>
        <path id="MicrosoftYaHei-64a" d="M 1463 2897 
L 2488 2897 
L 2488 3441 
L 2950 3441 
L 2950 2897 
L 4244 2897 
L 4244 3441 
L 4706 3441 
L 4706 2897 
L 5875 2897 
L 5875 2484 
L 4706 2484 
L 4706 1797 
L 6169 1797 
L 6169 1384 
L 3534 1384 
Q 3819 922 4228 588 
Q 4716 822 5494 1247 
L 5756 791 
Q 5097 516 4622 316 
Q 5322 -94 6300 -216 
Q 6106 -466 5950 -691 
Q 3900 -266 3047 1384 
L 2381 1384 
L 2381 -184 
Q 2463 -159 3625 209 
Q 3613 -28 3625 -291 
Q 3056 -453 2494 -653 
Q 2350 -709 2044 -859 
L 1769 -478 
Q 1919 -378 1919 -47 
L 1919 1384 
L 1178 1384 
Q 1125 103 456 -847 
Q 300 -634 100 -403 
Q 750 441 750 2341 
L 750 5028 
L 5850 5028 
L 5850 3384 
L 5375 3384 
L 5375 3597 
L 1225 3597 
L 1225 2766 
Q 1225 2234 1203 1797 
L 2488 1797 
L 2488 2484 
L 1463 2484 
L 1463 2897 
z
M 5375 4616 
L 1225 4616 
L 1225 4009 
L 5375 4009 
L 5375 4616 
z
M 2950 1797 
L 4244 1797 
L 4244 2484 
L 2950 2484 
L 2950 1797 
z
" transform="scale(0.015625)"/>
       </defs>
       <use xlink:href="#MicrosoftYaHei-17"/>
       <use xlink:href="#MicrosoftYaHei-14" transform="translate(58.640625 0)"/>
       <use xlink:href="#MicrosoftYaHei-3" transform="translate(82.71875 0)"/>
       <use xlink:href="#MicrosoftYaHei-547" transform="translate(112.3125 0)"/>
       <use xlink:href="#MicrosoftYaHei-64a" transform="translate(212.3125 0)"/>
      </g>
     </g>
    </g>
    <g id="ytick_2">
     <g id="line2d_8">
      <g>
       <use xlink:href="#mc823661dfc" x="68.92" y="292.831035" style="stroke: #000000; stroke-width: 0.8"/>
      </g>
     </g>
     <g id="text_8">
      <!-- 2. 学院 -->
      <g transform="translate(30.68875 297.023222) scale(0.1 -0.1)">
       <defs>
        <path id="MicrosoftYaHei-606" d="M 144 1359 
L 3069 1359 
L 3069 1709 
L 4263 2384 
L 1325 2384 
L 1325 2841 
L 4994 2841 
L 4994 2316 
L 3575 1497 
L 3575 1359 
L 6263 1359 
L 6263 903 
L 3575 903 
L 3575 -41 
Q 3575 -778 2831 -778 
Q 2419 -778 1863 -766 
Q 1844 -553 1788 -234 
Q 2288 -284 2744 -291 
Q 3069 -297 3069 53 
L 3069 903 
L 144 903 
L 144 1359 
z
M 356 3909 
L 6056 3909 
L 6056 2647 
L 5563 2647 
L 5563 3453 
L 850 3453 
L 850 2647 
L 356 2647 
L 356 3909 
z
M 4313 4272 
Q 4731 4722 5100 5241 
L 5550 4909 
Q 5144 4447 4681 3941 
L 4313 4272 
z
M 2538 5116 
L 2944 5353 
Q 3325 4853 3650 4334 
L 3200 4078 
Q 2925 4566 2538 5116 
z
M 850 4928 
L 1219 5197 
Q 1600 4778 1969 4291 
L 1544 3991 
Q 1194 4522 850 4928 
z
" transform="scale(0.015625)"/>
        <path id="MicrosoftYaHei-b93" d="M 2169 1628 
Q 2350 428 1594 278 
Q 1344 228 988 266 
Q 944 522 856 772 
L 856 -816 
L 400 -816 
L 400 4953 
L 2144 4953 
L 2144 4516 
Q 1888 3534 1638 2816 
Q 2113 2153 2169 1628 
z
M 2300 2103 
L 6113 2103 
L 6113 1672 
L 4863 1672 
L 4863 72 
Q 4863 -222 5075 -222 
L 5494 -222 
Q 5713 -222 5756 72 
Q 5794 366 5819 903 
Q 6025 816 6313 709 
Q 6263 228 6206 -122 
Q 6138 -659 5569 -659 
L 4919 -659 
Q 4394 -659 4394 -59 
L 4394 1672 
L 3713 1672 
Q 3703 650 3400 184 
Q 3069 -359 2094 -834 
Q 1850 -516 1750 -409 
Q 2588 -78 2950 416 
Q 3250 847 3244 1672 
L 2300 1672 
L 2300 2103 
z
M 2325 4528 
L 4047 4528 
Q 3881 4816 3669 5134 
L 4069 5366 
Q 4325 4997 4513 4691 
L 4231 4528 
L 6044 4528 
L 6044 3528 
L 5569 3528 
L 5569 4097 
L 2800 4097 
L 2800 3528 
L 2325 3528 
L 2325 4528 
z
M 1419 741 
Q 1838 822 1694 1634 
Q 1625 2091 1150 2734 
Q 1500 3941 1650 4516 
L 856 4516 
L 856 791 
Q 1175 709 1419 741 
z
M 2588 3316 
L 5800 3316 
L 5800 2884 
L 2588 2884 
L 2588 3316 
z
" transform="scale(0.015625)"/>
       </defs>
       <use xlink:href="#MicrosoftYaHei-18"/>
       <use xlink:href="#MicrosoftYaHei-14" transform="translate(58.640625 0)"/>
       <use xlink:href="#MicrosoftYaHei-3" transform="translate(82.71875 0)"/>
       <use xlink:href="#MicrosoftYaHei-606" transform="translate(112.3125 0)"/>
       <use xlink:href="#MicrosoftYaHei-b93" transform="translate(212.3125 0)"/>
      </g>
     </g>
    </g>
    <g id="ytick_3">
     <g id="line2d_9">
      <g>
       <use xlink:href="#mc823661dfc" x="68.92" y="274.014671" style="stroke: #000000; stroke-width: 0.8"/>
      </g>
     </g>
     <g id="text_9">
      <!-- 3. 传媒大学 -->
      <g transform="translate(10.68875 278.196702) scale(0.1 -0.1)">
       <defs>
        <path id="MicrosoftYaHei-19" d="M 447 809 
Q 944 425 1569 425 
Q 2069 425 2361 670 
Q 2653 916 2653 1328 
Q 2653 2247 1338 2247 
L 934 2247 
L 934 2753 
L 1319 2753 
Q 2484 2753 2484 3616 
Q 2484 4413 1594 4413 
Q 1084 4413 634 4069 
L 634 4647 
Q 1109 4922 1744 4922 
Q 2363 4922 2738 4598 
Q 3113 4275 3113 3759 
Q 3113 2809 2144 2538 
L 2144 2525 
Q 2669 2469 2973 2155 
Q 3278 1841 3278 1372 
Q 3278 719 2808 319 
Q 2338 -81 1556 -81 
Q 869 -81 447 175 
L 447 809 
z
" transform="scale(0.015625)"/>
        <path id="MicrosoftYaHei-46e" d="M 2413 684 
L 2681 1053 
Q 3397 666 4056 278 
L 5269 1472 
L 2606 1472 
L 2606 1916 
Q 2731 2306 2847 2691 
L 1869 2691 
L 1869 3128 
L 2975 3128 
Q 3097 3550 3203 3959 
L 2175 3959 
L 2175 4397 
L 3316 4397 
Q 3425 4831 3519 5253 
L 4056 5253 
Q 3959 4838 3847 4397 
L 6050 4397 
L 6050 3959 
L 3734 3959 
Q 3625 3553 3503 3128 
L 6300 3128 
L 6300 2691 
L 3378 2691 
Q 3266 2306 3144 1909 
L 5906 1909 
L 5906 1453 
L 4481 22 
Q 4869 -209 5238 -447 
L 4913 -872 
Q 3594 34 2413 684 
z
M 88 2241 
Q 963 3528 1469 5297 
L 1975 5147 
Q 1741 4422 1475 3791 
L 1475 -803 
L 981 -803 
L 981 2763 
Q 663 2175 306 1691 
Q 213 1959 88 2241 
z
" transform="scale(0.015625)"/>
        <path id="MicrosoftYaHei-5fd" d="M 6388 -72 
Q 6213 -341 6081 -547 
Q 4938 94 4431 1103 
L 4413 1103 
L 4413 -841 
L 3963 -841 
L 3963 1103 
L 3947 1103 
Q 3369 72 2200 -659 
Q 2056 -484 1863 -284 
Q 2913 281 3484 1103 
L 2125 1103 
L 2125 1516 
L 3963 1516 
L 3963 2166 
L 3219 2166 
L 3219 1966 
L 2756 1966 
L 2756 4147 
L 2125 4147 
L 2125 4559 
L 2756 4559 
L 2756 5278 
L 3219 5278 
L 3219 4559 
L 5156 4559 
L 5156 5266 
L 5619 5266 
L 5619 4559 
L 6263 4559 
L 6263 4147 
L 5619 4147 
L 5619 1966 
L 5156 1966 
L 5156 2166 
L 4413 2166 
L 4413 1516 
L 6306 1516 
L 6306 1103 
L 4838 1103 
Q 5378 338 6388 -72 
z
M 2281 428 
L 1913 34 
Q 1663 291 1406 541 
Q 975 -166 300 -734 
Q 169 -541 19 -334 
Q 672 169 1072 863 
Q 666 1247 244 1616 
Q 478 2456 666 3541 
L 106 3541 
L 106 3991 
L 741 3991 
Q 838 4603 919 5291 
L 1413 5222 
Q 1309 4553 1213 3991 
L 2206 3991 
L 2206 3597 
Q 2078 1897 1647 981 
Q 1956 716 2281 428 
z
M 1731 3541 
L 1131 3541 
Q 922 2391 738 1759 
Q 1003 1538 1288 1294 
Q 1653 2156 1731 3541 
z
M 3219 2566 
L 5156 2566 
L 5156 3159 
L 3219 3159 
L 3219 2566 
z
M 3219 3559 
L 5156 3559 
L 5156 4147 
L 3219 4147 
L 3219 3559 
z
" transform="scale(0.015625)"/>
        <path id="MicrosoftYaHei-5dd" d="M 88 -341 
Q 2666 806 2869 3103 
L 200 3103 
L 200 3591 
L 2891 3591 
Q 2906 4431 2906 5284 
L 3450 5284 
Q 3450 4444 3434 3591 
L 6206 3591 
L 6206 3103 
L 3425 3103 
Q 3869 606 6338 -191 
Q 6019 -497 5863 -697 
Q 3828 122 3203 2219 
Q 2716 322 475 -822 
Q 350 -653 88 -341 
z
" transform="scale(0.015625)"/>
       </defs>
       <use xlink:href="#MicrosoftYaHei-19"/>
       <use xlink:href="#MicrosoftYaHei-14" transform="translate(58.640625 0)"/>
       <use xlink:href="#MicrosoftYaHei-3" transform="translate(82.71875 0)"/>
       <use xlink:href="#MicrosoftYaHei-46e" transform="translate(112.3125 0)"/>
       <use xlink:href="#MicrosoftYaHei-5fd" transform="translate(212.3125 0)"/>
       <use xlink:href="#MicrosoftYaHei-5dd" transform="translate(312.3125 0)"/>
       <use xlink:href="#MicrosoftYaHei-606" transform="translate(412.3125 0)"/>
      </g>
     </g>
    </g>
    <g id="ytick_4">
     <g id="line2d_10">
      <g>
       <use xlink:href="#mc823661dfc" x="68.92" y="255.198307" style="stroke: #000000; stroke-width: 0.8"/>
      </g>
     </g>
     <g id="text_10">
      <!-- 4. 教育 -->
      <g transform="translate(30.68875 259.385026) scale(0.1 -0.1)">
       <defs>
        <path id="MicrosoftYaHei-1a" d="M 2906 4841 
L 2906 1644 
L 3631 1644 
L 3631 1138 
L 2906 1138 
L 2906 0 
L 2313 0 
L 2313 1138 
L 53 1138 
L 53 1616 
Q 656 2294 1265 3178 
Q 1875 4063 2272 4841 
L 2906 4841 
z
M 741 1644 
L 2313 1644 
L 2313 3950 
Q 1988 3366 1616 2817 
Q 1244 2269 741 1644 
z
" transform="scale(0.015625)"/>
        <path id="MicrosoftYaHei-77e" d="M 2975 2153 
Q 3681 3453 4106 5216 
L 4563 5103 
Q 4438 4591 4275 4084 
L 6225 4084 
L 6225 3634 
L 5613 3634 
Q 5569 2022 4825 859 
Q 5394 78 6319 -359 
Q 6144 -616 6025 -822 
Q 5113 -297 4538 459 
Q 3906 -328 2900 -884 
Q 2788 -722 2594 -472 
Q 3638 59 4263 872 
Q 3825 1603 3669 2522 
Q 3525 2216 3375 1916 
Q 3175 2047 2975 2153 
z
M 3163 4678 
L 3538 4434 
Q 3156 3866 2688 3309 
L 3150 3309 
L 3150 2897 
L 2331 2897 
Q 2081 2616 1819 2353 
L 2844 2353 
L 2844 1978 
L 2038 1184 
L 2038 1072 
Q 2544 1159 3156 1272 
Q 3138 1034 3131 841 
Q 2619 753 2038 647 
L 2038 -34 
Q 2081 -809 1313 -778 
Q 1044 -778 619 -766 
Q 594 -566 556 -297 
Q 850 -328 1225 -334 
Q 1619 -372 1588 16 
L 1588 566 
Q 981 453 313 322 
L 238 778 
Q 756 853 1588 991 
L 1588 1303 
L 2244 1953 
L 1406 1953 
Q 888 1478 369 1078 
Q 244 1253 75 1434 
Q 438 1691 750 1953 
L 231 1953 
L 231 2353 
L 1200 2353 
Q 1494 2616 1769 2897 
L 150 2897 
L 150 3309 
L 1381 3309 
L 1381 3947 
L 400 3947 
L 400 4359 
L 1381 4359 
L 1381 5209 
L 1831 5209 
L 1831 4359 
L 2600 4359 
L 2600 3947 
L 1831 3947 
L 1831 3309 
L 2138 3309 
Q 2700 3941 3163 4678 
z
M 3981 3272 
Q 4106 2134 4550 1303 
Q 5119 2291 5156 3634 
L 4119 3634 
Q 4056 3453 3981 3272 
z
" transform="scale(0.015625)"/>
        <path id="MicrosoftYaHei-a03" d="M 988 2578 
L 5438 2578 
L 5438 -3 
Q 5438 -741 4563 -741 
Q 4269 -741 3844 -734 
Q 3831 -672 3744 -222 
Q 4175 -284 4531 -284 
Q 4950 -284 4963 72 
L 4963 266 
L 1463 266 
L 1463 -797 
L 988 -797 
L 988 2578 
z
M 4519 4128 
Q 5319 3578 6100 2984 
L 5744 2628 
Q 5484 2853 5203 3078 
Q 2753 3069 1463 3009 
Q 1069 2991 788 2941 
L 613 3466 
Q 1044 3547 1306 3703 
Q 1681 3925 2050 4228 
L 169 4228 
L 169 4666 
L 3100 4666 
Q 2969 4894 2813 5147 
L 3244 5359 
Q 3528 4916 3666 4666 
L 6238 4666 
L 6238 4228 
L 2788 4228 
Q 2169 3791 1656 3466 
Q 3122 3466 4650 3497 
Q 4444 3650 4225 3803 
L 4519 4128 
z
M 1463 678 
L 4963 678 
L 4963 1209 
L 1463 1209 
L 1463 678 
z
M 4963 2153 
L 1463 2153 
L 1463 1622 
L 4963 1622 
L 4963 2153 
z
" transform="scale(0.015625)"/>
       </defs>
       <use xlink:href="#MicrosoftYaHei-1a"/>
       <use xlink:href="#MicrosoftYaHei-14" transform="translate(58.640625 0)"/>
       <use xlink:href="#MicrosoftYaHei-3" transform="translate(82.71875 0)"/>
       <use xlink:href="#MicrosoftYaHei-77e" transform="translate(112.3125 0)"/>
       <use xlink:href="#MicrosoftYaHei-a03" transform="translate(212.3125 0)"/>
      </g>
     </g>
    </g>
    <g id="ytick_5">
     <g id="line2d_11">
      <g>
       <use xlink:href="#mc823661dfc" x="68.92" y="236.381943" style="stroke: #000000; stroke-width: 0.8"/>
      </g>
     </g>
     <g id="text_11">
      <!-- 5. 学校 -->
      <g transform="translate(30.68875 240.563974) scale(0.1 -0.1)">
       <defs>
        <path id="MicrosoftYaHei-7fb" d="M 88 1353 
Q 744 2472 1013 3572 
L 156 3572 
L 156 4003 
L 1031 4003 
L 1031 5297 
L 1488 5297 
L 1488 4003 
L 2213 4003 
L 2213 3572 
L 1488 3572 
L 1488 2991 
L 1706 3159 
Q 2150 2597 2319 2334 
L 1981 2084 
Q 1788 2378 1488 2809 
L 1488 -866 
L 1031 -866 
L 1031 2472 
Q 706 1416 288 803 
Q 206 1072 88 1353 
z
M 3344 2416 
Q 3681 1528 4175 959 
Q 4638 1528 4938 2472 
L 5419 2297 
Q 5006 1216 4525 616 
Q 5231 28 6313 -272 
Q 6163 -453 5994 -741 
Q 4869 -347 4188 253 
Q 3469 -434 2288 -891 
Q 2163 -691 1988 -441 
Q 3144 -34 3838 603 
Q 3306 1203 2944 2222 
L 3344 2416 
z
M 2425 4341 
L 4113 4341 
Q 3981 4697 3756 5159 
L 4175 5341 
Q 4419 4909 4588 4522 
L 4181 4341 
L 6188 4341 
L 6188 3903 
L 2425 3903 
L 2425 4341 
z
M 3344 3766 
L 3775 3553 
Q 3225 2603 2625 1809 
Q 2438 1941 2231 2072 
Q 2881 2897 3344 3766 
z
M 4581 3459 
L 4919 3741 
Q 5600 3016 6213 2253 
L 5831 1928 
Q 5288 2684 4581 3459 
z
" transform="scale(0.015625)"/>
       </defs>
       <use xlink:href="#MicrosoftYaHei-1b"/>
       <use xlink:href="#MicrosoftYaHei-14" transform="translate(58.640625 0)"/>
       <use xlink:href="#MicrosoftYaHei-3" transform="translate(82.71875 0)"/>
       <use xlink:href="#MicrosoftYaHei-606" transform="translate(112.3125 0)"/>
       <use xlink:href="#MicrosoftYaHei-7fb" transform="translate(212.3125 0)"/>
      </g>
     </g>
    </g>
    <g id="ytick_6">
     <g id="line2d_12">
      <g>
       <use xlink:href="#mc823661dfc" x="68.92" y="217.565579" style="stroke: #000000; stroke-width: 0.8"/>
      </g>
     </g>
     <g id="text_12">
      <!-- 6. 工作 -->
      <g transform="translate(30.68875 221.723392) scale(0.1 -0.1)">
       <defs>
        <path id="MicrosoftYaHei-1c" d="M 3181 4219 
Q 2803 4413 2391 4413 
Q 1763 4413 1381 3866 
Q 1000 3319 994 2372 
L 1009 2372 
Q 1353 3038 2106 3038 
Q 2734 3038 3109 2628 
Q 3484 2219 3484 1541 
Q 3484 831 3051 375 
Q 2619 -81 1947 -81 
Q 1209 -81 789 495 
Q 369 1072 369 2131 
Q 369 3413 920 4167 
Q 1472 4922 2372 4922 
Q 2888 4922 3181 4781 
L 3181 4219 
z
M 1031 1584 
Q 1031 1106 1286 765 
Q 1541 425 1963 425 
Q 2363 425 2613 719 
Q 2863 1013 2863 1475 
Q 2863 1975 2627 2253 
Q 2391 2531 1956 2531 
Q 1544 2531 1287 2250 
Q 1031 1969 1031 1584 
z
" transform="scale(0.015625)"/>
        <path id="MicrosoftYaHei-657" d="M 181 97 
L 2919 97 
L 2919 4266 
L 538 4266 
L 538 4766 
L 5863 4766 
L 5863 4266 
L 3469 4266 
L 3469 97 
L 6213 97 
L 6213 -391 
L 181 -391 
L 181 97 
z
" transform="scale(0.015625)"/>
        <path id="MicrosoftYaHei-481" d="M 1806 2784 
Q 2638 3922 3031 5322 
L 3544 5228 
Q 3397 4747 3213 4297 
L 6294 4297 
L 6294 3859 
L 4019 3859 
L 4019 2766 
L 6044 2766 
L 6044 2328 
L 4019 2328 
L 4019 1191 
L 6125 1191 
L 6125 753 
L 4019 753 
L 4019 -822 
L 3531 -822 
L 3531 3859 
L 3022 3859 
Q 2669 3097 2200 2428 
Q 2025 2597 1806 2784 
z
M 69 2209 
Q 950 3516 1463 5303 
L 1975 5153 
Q 1734 4416 1463 3769 
L 1463 -822 
L 975 -822 
L 975 2750 
Q 659 2159 306 1672 
Q 213 1909 69 2209 
z
" transform="scale(0.015625)"/>
       </defs>
       <use xlink:href="#MicrosoftYaHei-1c"/>
       <use xlink:href="#MicrosoftYaHei-14" transform="translate(58.640625 0)"/>
       <use xlink:href="#MicrosoftYaHei-3" transform="translate(82.71875 0)"/>
       <use xlink:href="#MicrosoftYaHei-657" transform="translate(112.3125 0)"/>
       <use xlink:href="#MicrosoftYaHei-481" transform="translate(212.3125 0)"/>
      </g>
     </g>
    </g>
    <g id="ytick_7">
     <g id="line2d_13">
      <g>
       <use xlink:href="#mc823661dfc" x="68.92" y="198.749215" style="stroke: #000000; stroke-width: 0.8"/>
      </g>
     </g>
     <g id="text_13">
      <!-- 7. 文化 -->
      <g transform="translate(30.68875 202.921872) scale(0.1 -0.1)">
       <defs>
        <path id="MicrosoftYaHei-1d" d="M 3422 4463 
Q 2659 3131 2223 1998 
Q 1788 866 1684 0 
L 1047 0 
Q 1163 853 1594 1947 
Q 2025 3041 2747 4300 
L 347 4300 
L 347 4841 
L 3422 4841 
L 3422 4463 
z
" transform="scale(0.015625)"/>
        <path id="MicrosoftYaHei-786" d="M 194 4241 
L 3194 4241 
Q 2878 4841 2700 5116 
L 3181 5341 
Q 3356 5072 3706 4466 
L 3256 4241 
L 6194 4241 
L 6194 3778 
L 5041 3778 
Q 4706 1994 3603 909 
Q 4434 303 6244 -178 
Q 5956 -503 5806 -722 
Q 4044 -113 3203 553 
Q 2359 -103 506 -772 
Q 344 -553 131 -284 
Q 1919 253 2822 913 
Q 1681 2131 1372 3778 
L 194 3778 
L 194 4241 
z
M 4506 3778 
L 1872 3778 
Q 2153 2241 3216 1238 
Q 4231 2181 4506 3778 
z
" transform="scale(0.015625)"/>
        <path id="MicrosoftYaHei-517" d="M 1844 1453 
Q 2663 1834 3375 2331 
L 3375 5197 
L 3913 5197 
L 3913 2734 
Q 4869 3506 5613 4516 
L 6069 4184 
Q 5159 2975 3913 2069 
L 3913 303 
Q 3913 -122 4363 -122 
L 5156 -122 
Q 5581 -122 5650 284 
Q 5738 709 5763 1266 
Q 6025 1166 6313 1084 
Q 6263 559 6181 122 
Q 6063 -597 5281 -597 
L 4225 -597 
Q 3375 -597 3375 241 
L 3375 1703 
Q 2791 1328 2144 1016 
Q 2013 1222 1844 1453 
z
M 88 2222 
Q 1175 3666 1688 5291 
L 2231 5134 
Q 1934 4359 1588 3675 
L 1588 -797 
L 1063 -797 
L 1063 2734 
Q 716 2172 325 1678 
Q 219 1947 88 2222 
z
" transform="scale(0.015625)"/>
       </defs>
       <use xlink:href="#MicrosoftYaHei-1d"/>
       <use xlink:href="#MicrosoftYaHei-14" transform="translate(58.640625 0)"/>
       <use xlink:href="#MicrosoftYaHei-3" transform="translate(82.71875 0)"/>
       <use xlink:href="#MicrosoftYaHei-786" transform="translate(112.3125 0)"/>
       <use xlink:href="#MicrosoftYaHei-517" transform="translate(212.3125 0)"/>
      </g>
     </g>
    </g>
    <g id="ytick_8">
     <g id="line2d_14">
      <g>
       <use xlink:href="#mc823661dfc" x="68.92" y="179.932852" style="stroke: #000000; stroke-width: 0.8"/>
      </g>
     </g>
     <g id="text_14">
      <!-- 8. 传播 -->
      <g transform="translate(30.68875 184.071133) scale(0.1 -0.1)">
       <defs>
        <path id="MicrosoftYaHei-1e" d="M 306 1350 
Q 306 1769 556 2122 
Q 806 2475 1200 2625 
Q 884 2803 700 3081 
Q 516 3359 516 3684 
Q 516 4028 692 4312 
Q 869 4597 1183 4759 
Q 1497 4922 1875 4922 
Q 2256 4922 2572 4761 
Q 2888 4600 3063 4315 
Q 3238 4031 3238 3684 
Q 3238 3366 3058 3086 
Q 2878 2806 2559 2625 
Q 2953 2472 3200 2119 
Q 3447 1766 3447 1350 
Q 3447 938 3250 611 
Q 3053 284 2690 103 
Q 2328 -78 1875 -78 
Q 1425 -78 1065 103 
Q 706 284 506 612 
Q 306 941 306 1350 
z
M 906 1378 
Q 906 947 1172 687 
Q 1438 428 1878 428 
Q 2309 428 2582 692 
Q 2856 956 2856 1378 
Q 2856 1778 2579 2051 
Q 2303 2325 1878 2325 
Q 1456 2325 1181 2058 
Q 906 1791 906 1378 
z
M 1081 3634 
Q 1081 3309 1312 3076 
Q 1544 2844 1878 2844 
Q 2206 2844 2445 3078 
Q 2684 3313 2684 3634 
Q 2684 3963 2454 4191 
Q 2225 4419 1878 4419 
Q 1534 4419 1307 4195 
Q 1081 3972 1081 3634 
z
" transform="scale(0.015625)"/>
        <path id="MicrosoftYaHei-76e" d="M 6369 2259 
Q 6194 1991 6063 1784 
Q 4875 2272 4313 3091 
L 4288 3091 
L 4288 2047 
L 3838 2047 
L 3838 3091 
L 3819 3091 
Q 3338 2409 2463 1853 
L 5850 1853 
L 5850 -847 
L 5413 -847 
L 5413 -547 
L 2731 -547 
L 2731 -847 
L 2294 -847 
L 2294 1747 
Q 2150 1659 2000 1578 
Q 1856 1753 1669 1947 
Q 2669 2384 3331 3091 
L 1994 3091 
L 1994 3491 
L 3838 3491 
L 3838 4509 
Q 3044 4459 2213 4428 
Q 2181 4616 2125 4847 
Q 4419 4922 5875 5078 
L 5963 4653 
Q 5150 4584 4288 4534 
L 4288 3491 
L 6244 3491 
L 6244 3091 
L 4763 3091 
Q 5356 2522 6369 2259 
z
M 75 1941 
Q 481 2103 913 2278 
L 913 3634 
L 119 3634 
L 119 4084 
L 913 4084 
L 913 5228 
L 1375 5228 
L 1375 4084 
L 2025 4084 
L 2025 3634 
L 1375 3634 
L 1375 2472 
Q 1650 2591 1931 2716 
Q 1950 2447 1988 2247 
Q 1675 2103 1375 1966 
L 1375 -109 
Q 1375 -778 769 -784 
Q 556 -791 181 -778 
Q 156 -522 106 -259 
Q 488 -297 644 -297 
Q 913 -297 913 9 
L 913 1753 
Q 531 1578 169 1409 
L 75 1941 
z
M 4281 -159 
L 5413 -159 
L 5413 466 
L 4281 466 
L 4281 -159 
z
M 5413 1466 
L 4281 1466 
L 4281 841 
L 5413 841 
L 5413 1466 
z
M 2731 841 
L 3856 841 
L 3856 1466 
L 2731 1466 
L 2731 841 
z
M 2731 -159 
L 3856 -159 
L 3856 466 
L 2731 466 
L 2731 -159 
z
M 4681 3797 
Q 5088 4122 5463 4497 
L 5813 4203 
Q 5475 3897 4975 3497 
L 4681 3797 
z
M 2363 4128 
L 2663 4397 
Q 3006 4116 3356 3797 
L 3025 3497 
Q 2650 3878 2363 4128 
z
" transform="scale(0.015625)"/>
       </defs>
       <use xlink:href="#MicrosoftYaHei-1e"/>
       <use xlink:href="#MicrosoftYaHei-14" transform="translate(58.640625 0)"/>
       <use xlink:href="#MicrosoftYaHei-3" transform="translate(82.71875 0)"/>
       <use xlink:href="#MicrosoftYaHei-46e" transform="translate(112.3125 0)"/>
       <use xlink:href="#MicrosoftYaHei-76e" transform="translate(212.3125 0)"/>
      </g>
     </g>
    </g>
    <g id="ytick_9">
     <g id="line2d_15">
      <g>
       <use xlink:href="#mc823661dfc" x="68.92" y="161.116488" style="stroke: #000000; stroke-width: 0.8"/>
      </g>
     </g>
     <g id="text_15">
      <!-- 9. 建设 -->
      <g transform="translate(30.68875 165.264144) scale(0.1 -0.1)">
       <defs>
        <path id="MicrosoftYaHei-1f" d="M 578 656 
Q 978 425 1441 425 
Q 2091 425 2448 937 
Q 2806 1450 2806 2394 
Q 2800 2388 2794 2394 
Q 2475 1788 1722 1788 
Q 1113 1788 713 2206 
Q 313 2625 313 3294 
Q 313 4006 750 4464 
Q 1188 4922 1884 4922 
Q 2606 4922 3012 4355 
Q 3419 3788 3419 2703 
Q 3419 1363 2894 641 
Q 2369 -81 1441 -81 
Q 931 -81 578 84 
L 578 656 
z
M 931 3372 
Q 931 2884 1181 2598 
Q 1431 2313 1872 2313 
Q 2253 2313 2512 2573 
Q 2772 2834 2772 3206 
Q 2772 3728 2514 4070 
Q 2256 4413 1834 4413 
Q 1444 4413 1187 4116 
Q 931 3819 931 3372 
z
" transform="scale(0.015625)"/>
        <path id="MicrosoftYaHei-68f" d="M 2075 1009 
L 3675 1009 
L 3675 1553 
L 2288 1553 
L 2288 1928 
L 3675 1928 
L 3675 2472 
L 2375 2472 
L 2375 2847 
L 3675 2847 
L 3675 3391 
L 2050 3391 
L 2050 3778 
L 3675 3778 
L 3675 4322 
L 2375 4322 
L 2375 4697 
L 3675 4697 
L 3675 5309 
L 4138 5309 
L 4138 4697 
L 5588 4697 
L 5588 3778 
L 6244 3778 
L 6244 3391 
L 5588 3391 
L 5588 2303 
L 5138 2303 
L 5138 2472 
L 4138 2472 
L 4138 1928 
L 5713 1928 
L 5713 1553 
L 4138 1553 
L 4138 1009 
L 6000 1009 
L 6000 634 
L 4138 634 
L 4138 -9 
L 3675 -9 
L 3675 634 
L 2075 634 
L 2075 1009 
z
M 600 2066 
Q 788 1303 1125 813 
Q 1459 1500 1544 2397 
L 294 2397 
L 294 2853 
L 1444 4272 
L 169 4272 
L 169 4697 
L 2019 4697 
L 2019 4272 
L 844 2822 
L 2013 2822 
L 2013 2453 
Q 1897 1294 1447 444 
Q 2128 -147 3563 -153 
Q 4750 -178 6319 -122 
Q 6213 -378 6113 -616 
Q 4681 -609 3344 -603 
Q 1950 -603 1206 47 
Q 853 -466 350 -847 
Q 250 -666 94 -441 
Q 563 -84 881 391 
Q 463 922 188 1909 
L 600 2066 
z
M 4138 2847 
L 5138 2847 
L 5138 3391 
L 4138 3391 
L 4138 2847 
z
M 5138 4322 
L 4138 4322 
L 4138 3778 
L 5138 3778 
L 5138 4322 
z
" transform="scale(0.015625)"/>
        <path id="MicrosoftYaHei-a97" d="M 2231 2116 
L 2231 2547 
L 5638 2547 
L 5638 2116 
Q 5144 1031 4419 416 
Q 5216 -109 6338 -316 
Q 6119 -597 5956 -822 
Q 4841 -500 4013 113 
Q 3163 -463 1863 -872 
Q 1700 -641 1538 -422 
Q 2778 -88 3613 431 
Q 2888 1131 2559 2116 
L 2231 2116 
z
M 4856 4553 
L 3294 4553 
L 3294 4372 
Q 3294 3222 2244 2659 
Q 2075 2866 1881 3047 
Q 2806 3522 2806 4359 
L 2806 5016 
L 5344 5016 
L 5344 3741 
Q 5344 3459 5631 3459 
L 6319 3459 
Q 6288 3203 6269 2997 
L 5444 2997 
Q 4856 2997 4856 3647 
L 4856 4553 
z
M 2250 1028 
Q 2263 734 2294 472 
Q 1438 -84 1019 -422 
L 719 -9 
Q 931 197 931 553 
L 931 2778 
L 138 2778 
L 138 3228 
L 1406 3228 
L 1406 453 
Q 1813 722 2250 1028 
z
M 988 5128 
Q 1469 4653 1906 4166 
L 1469 3803 
Q 1013 4391 613 4803 
L 988 5128 
z
M 3031 2116 
Q 3347 1319 4022 713 
Q 4684 1225 5081 2116 
L 3031 2116 
z
" transform="scale(0.015625)"/>
       </defs>
       <use xlink:href="#MicrosoftYaHei-1f"/>
       <use xlink:href="#MicrosoftYaHei-14" transform="translate(58.640625 0)"/>
       <use xlink:href="#MicrosoftYaHei-3" transform="translate(82.71875 0)"/>
       <use xlink:href="#MicrosoftYaHei-68f" transform="translate(112.3125 0)"/>
       <use xlink:href="#MicrosoftYaHei-a97" transform="translate(212.3125 0)"/>
      </g>
     </g>
    </g>
    <g id="ytick_10">
     <g id="line2d_16">
      <g>
       <use xlink:href="#mc823661dfc" x="68.92" y="142.300124" style="stroke: #000000; stroke-width: 0.8"/>
      </g>
     </g>
     <g id="text_16">
      <!-- 10. 国际 -->
      <g transform="translate(24.824688 146.360182) scale(0.1 -0.1)">
       <defs>
        <path id="MicrosoftYaHei-5a2" d="M 469 4997 
L 5938 4997 
L 5938 -834 
L 5456 -834 
L 5456 -522 
L 950 -522 
L 950 -841 
L 469 -841 
L 469 4997 
z
M 5456 4553 
L 950 4553 
L 950 -78 
L 5456 -78 
L 5456 4553 
z
M 1238 1009 
L 2963 1009 
L 2963 2247 
L 1456 2247 
L 1456 2672 
L 2963 2672 
L 2963 3509 
L 1338 3509 
L 1338 3934 
L 5063 3934 
L 5063 3509 
L 3425 3509 
L 3425 2672 
L 4938 2672 
L 4938 2247 
L 3425 2247 
L 3425 1009 
L 5163 1009 
L 5163 584 
L 1238 584 
L 1238 1009 
z
M 3750 1847 
L 4100 2109 
Q 4444 1753 4688 1441 
L 4319 1159 
Q 4019 1566 3750 1847 
z
" transform="scale(0.015625)"/>
        <path id="MicrosoftYaHei-b8e" d="M 2256 1678 
Q 2419 503 1656 334 
Q 1413 284 1025 328 
Q 975 584 888 834 
Q 1219 753 1469 784 
Q 1906 834 1763 1678 
Q 1675 2166 1169 2828 
Q 1425 3591 1681 4491 
L 850 4491 
L 850 -841 
L 375 -841 
L 375 4953 
L 2200 4953 
L 2200 4503 
Q 1913 3572 1694 2884 
Q 2194 2203 2256 1678 
z
M 2150 3228 
L 6225 3228 
L 6225 2766 
L 4425 2766 
L 4425 16 
Q 4425 -747 3688 -747 
Q 3394 -747 2938 -741 
Q 2881 -403 2838 -209 
Q 3313 -259 3575 -259 
Q 3938 -259 3938 122 
L 3938 2766 
L 2150 2766 
L 2150 3228 
z
M 2488 4803 
L 5888 4803 
L 5888 4341 
L 2488 4341 
L 2488 4803 
z
M 2969 2097 
L 3431 1928 
Q 2988 747 2481 -222 
Q 2206 -72 2038 -3 
Q 2594 1003 2969 2097 
z
M 4900 1872 
L 5331 2084 
Q 5844 1041 6300 53 
L 5844 -166 
Q 5494 641 4900 1872 
z
" transform="scale(0.015625)"/>
       </defs>
       <use xlink:href="#MicrosoftYaHei-17"/>
       <use xlink:href="#MicrosoftYaHei-16" transform="translate(58.640625 0)"/>
       <use xlink:href="#MicrosoftYaHei-14" transform="translate(117.28125 0)"/>
       <use xlink:href="#MicrosoftYaHei-3" transform="translate(141.359375 0)"/>
       <use xlink:href="#MicrosoftYaHei-5a2" transform="translate(170.953125 0)"/>
       <use xlink:href="#MicrosoftYaHei-b8e" transform="translate(270.953125 0)"/>
      </g>
     </g>
    </g>
    <g id="ytick_11">
     <g id="line2d_17">
      <g>
       <use xlink:href="#mc823661dfc" x="68.92" y="123.48376" style="stroke: #000000; stroke-width: 0.8"/>
      </g>
     </g>
     <g id="text_17">
      <!-- 11. 创新 -->
      <g transform="translate(24.824688 127.665791) scale(0.1 -0.1)">
       <defs>
        <path id="MicrosoftYaHei-4eb" d="M 2425 5247 
L 2344 5116 
Q 3138 4384 3869 3634 
L 3525 3247 
Q 2856 3991 2100 4716 
Q 1488 3747 838 3097 
L 3406 3097 
Q 3369 2228 3344 1878 
Q 3313 947 2494 947 
Q 2163 947 1681 966 
Q 1644 1241 1594 1466 
Q 2013 1397 2394 1391 
Q 2844 1384 2875 1959 
Q 2894 2259 2913 2659 
L 1256 2659 
L 1256 153 
Q 1256 -197 1631 -197 
L 2656 -197 
Q 3150 -197 3213 128 
Q 3288 428 3325 878 
Q 3569 778 3819 697 
Q 3756 284 3663 -66 
Q 3506 -647 2781 -647 
L 1538 -647 
Q 769 -647 769 116 
L 769 3022 
Q 569 2834 375 2678 
Q 188 2984 88 3128 
Q 1113 3909 1850 5247 
L 2425 5247 
z
M 5419 5203 
L 5919 5203 
L 5919 9 
Q 5919 -753 5163 -759 
Q 4900 -759 4181 -753 
Q 4150 -466 4081 -184 
Q 4744 -241 5013 -241 
Q 5419 -241 5419 159 
L 5419 5203 
z
M 4594 797 
L 4113 797 
L 4113 4647 
L 4594 4647 
L 4594 797 
z
" transform="scale(0.015625)"/>
        <path id="MicrosoftYaHei-78f" d="M 3594 4797 
Q 4888 4809 5981 5053 
L 6144 4572 
Q 4906 4409 4038 4359 
L 4038 2903 
L 6319 2903 
L 6319 2478 
L 5425 2478 
L 5425 -797 
L 4963 -797 
L 4963 2478 
L 4038 2478 
L 4038 2172 
Q 4038 253 3119 -816 
Q 2969 -622 2788 -416 
Q 3594 466 3594 2191 
L 3594 4797 
z
M 263 1991 
L 1538 1991 
L 1538 2584 
L 1988 2584 
L 1988 1991 
L 3213 1991 
L 3213 1591 
L 1988 1591 
L 1988 -41 
Q 1988 -703 1350 -703 
Q 1081 -703 744 -697 
Q 719 -491 675 -222 
Q 1038 -259 1244 -259 
Q 1538 -259 1538 59 
L 1538 1591 
L 263 1591 
L 263 1991 
z
M 88 3159 
L 1094 3159 
Q 828 3581 594 3884 
L 931 4122 
Q 1138 3872 1463 3416 
L 1109 3159 
L 1934 3159 
Q 2275 3650 2563 4128 
L 3006 3878 
Q 2703 3488 2428 3159 
L 3375 3159 
L 3375 2759 
L 88 2759 
L 88 3159 
z
M 288 4609 
L 1638 4609 
Q 1503 4866 1331 5166 
L 1731 5353 
Q 1925 5034 2094 4709 
L 1884 4609 
L 3213 4609 
L 3213 4209 
L 288 4209 
L 288 4609 
z
M 744 1309 
L 1169 1109 
Q 831 403 500 -166 
Q 319 -53 88 59 
Q 394 534 744 1309 
z
M 2544 1278 
Q 2894 803 3156 403 
L 2756 128 
Q 2481 609 2175 1034 
L 2544 1278 
z
" transform="scale(0.015625)"/>
       </defs>
       <use xlink:href="#MicrosoftYaHei-17"/>
       <use xlink:href="#MicrosoftYaHei-17" transform="translate(58.640625 0)"/>
       <use xlink:href="#MicrosoftYaHei-14" transform="translate(117.28125 0)"/>
       <use xlink:href="#MicrosoftYaHei-3" transform="translate(141.359375 0)"/>
       <use xlink:href="#MicrosoftYaHei-4eb" transform="translate(170.953125 0)"/>
       <use xlink:href="#MicrosoftYaHei-78f" transform="translate(270.953125 0)"/>
      </g>
     </g>
    </g>
    <g id="ytick_12">
     <g id="line2d_18">
      <g>
       <use xlink:href="#mc823661dfc" x="68.92" y="104.667396" style="stroke: #000000; stroke-width: 0.8"/>
      </g>
     </g>
     <g id="text_18">
      <!-- 12. 艺术 -->
      <g transform="translate(24.824688 108.829896) scale(0.1 -0.1)">
       <defs>
        <path id="MicrosoftYaHei-a2b" d="M 5644 1322 
Q 5825 1253 6194 1153 
Q 6100 366 6013 91 
Q 5881 -572 4569 -597 
L 3238 -597 
L 1763 -597 
Q 925 -572 719 -109 
Q 544 391 1156 872 
Q 2294 1672 4094 2566 
L 806 2566 
L 806 3016 
L 5150 3016 
L 5150 2541 
Q 2925 1472 1594 547 
Q 1206 259 1281 59 
Q 1369 -122 1894 -141 
L 3125 -144 
L 4431 -128 
Q 5456 -116 5525 328 
Q 5588 522 5644 1322 
z
M 138 4491 
L 1863 4491 
L 1863 5328 
L 2369 5328 
L 2369 4491 
L 4031 4491 
L 4031 5328 
L 4538 5328 
L 4538 4491 
L 6263 4491 
L 6263 4034 
L 4538 4034 
L 4538 3353 
L 4031 3353 
L 4031 4034 
L 2369 4034 
L 2369 3359 
L 1863 3359 
L 1863 4034 
L 138 4034 
L 138 4491 
z
" transform="scale(0.015625)"/>
        <path id="MicrosoftYaHei-7d0" d="M 6350 409 
Q 6125 153 5950 -91 
Q 4391 1013 3456 3025 
L 3456 -841 
L 2956 -841 
L 2956 3038 
Q 2081 1163 400 -172 
Q 256 28 38 303 
Q 1716 1519 2713 3353 
L 238 3353 
L 238 3816 
L 2956 3816 
L 2956 5328 
L 3456 5328 
L 3456 3816 
L 6188 3816 
L 6188 3353 
L 3684 3353 
Q 4725 1316 6350 409 
z
M 4069 4884 
L 4388 5234 
Q 4931 4866 5463 4416 
L 5113 4028 
Q 4594 4491 4069 4884 
z
" transform="scale(0.015625)"/>
       </defs>
       <use xlink:href="#MicrosoftYaHei-17"/>
       <use xlink:href="#MicrosoftYaHei-18" transform="translate(58.640625 0)"/>
       <use xlink:href="#MicrosoftYaHei-14" transform="translate(117.28125 0)"/>
       <use xlink:href="#MicrosoftYaHei-3" transform="translate(141.359375 0)"/>
       <use xlink:href="#MicrosoftYaHei-a2b" transform="translate(170.953125 0)"/>
       <use xlink:href="#MicrosoftYaHei-7d0" transform="translate(270.953125 0)"/>
      </g>
     </g>
    </g>
    <g id="ytick_13">
     <g id="line2d_19">
      <g>
       <use xlink:href="#mc823661dfc" x="68.92" y="85.851032" style="stroke: #000000; stroke-width: 0.8"/>
      </g>
     </g>
     <g id="text_19">
      <!-- 13. 专业 -->
      <g transform="translate(24.824688 90.004157) scale(0.1 -0.1)">
       <defs>
        <path id="MicrosoftYaHei-40b" d="M 1644 1041 
Q 2472 672 3431 219 
L 4844 1441 
L 1344 1441 
L 1344 1903 
L 1647 2678 
L 156 2678 
L 156 3153 
L 1834 3153 
L 2172 4009 
L 538 4009 
L 538 4484 
L 2359 4484 
L 2688 5316 
L 3256 5316 
L 2928 4484 
L 5888 4484 
L 5888 4009 
L 2741 4009 
L 2403 3153 
L 6288 3153 
L 6288 2678 
L 2216 2678 
L 1913 1909 
L 5556 1909 
L 5556 1422 
L 3894 0 
Q 4313 -200 4756 -416 
L 4450 -891 
Q 2881 -66 1381 622 
L 1644 1041 
z
" transform="scale(0.015625)"/>
        <path id="MicrosoftYaHei-40f" d="M 119 47 
L 2125 47 
L 2125 5209 
L 2650 5209 
L 2650 47 
L 3744 47 
L 3744 5209 
L 4269 5209 
L 4269 47 
L 6294 47 
L 6294 -416 
L 119 -416 
L 119 47 
z
M 844 3984 
Q 1356 2778 1838 1422 
L 1325 1191 
Q 906 2509 388 3784 
L 844 3984 
z
M 4494 1366 
Q 5119 2691 5544 3928 
L 6050 3728 
Q 5469 2234 4944 1159 
L 4494 1366 
z
" transform="scale(0.015625)"/>
       </defs>
       <use xlink:href="#MicrosoftYaHei-17"/>
       <use xlink:href="#MicrosoftYaHei-19" transform="translate(58.640625 0)"/>
       <use xlink:href="#MicrosoftYaHei-14" transform="translate(117.28125 0)"/>
       <use xlink:href="#MicrosoftYaHei-3" transform="translate(141.359375 0)"/>
       <use xlink:href="#MicrosoftYaHei-40b" transform="translate(170.953125 0)"/>
       <use xlink:href="#MicrosoftYaHei-40f" transform="translate(270.953125 0)"/>
      </g>
     </g>
    </g>
    <g id="ytick_14">
     <g id="line2d_20">
      <g>
       <use xlink:href="#mc823661dfc" x="68.92" y="67.034669" style="stroke: #000000; stroke-width: 0.8"/>
      </g>
     </g>
     <g id="text_20">
      <!-- 14. 学生 -->
      <g transform="translate(24.824688 71.2167) scale(0.1 -0.1)">
       <defs>
        <path id="MicrosoftYaHei-8ff" d="M 125 16 
L 3025 16 
L 3025 1609 
L 813 1609 
L 813 2091 
L 3025 2091 
L 3025 3534 
L 1375 3534 
Q 959 2784 419 2178 
Q 288 2384 81 2616 
Q 963 3603 1475 5028 
L 1988 4891 
Q 1822 4434 1622 4016 
L 3025 4016 
L 3025 5341 
L 3563 5341 
L 3563 4016 
L 5950 4016 
L 5950 3534 
L 3563 3534 
L 3563 2091 
L 5775 2091 
L 5775 1609 
L 3563 1609 
L 3563 16 
L 6288 16 
L 6288 -453 
L 125 -453 
L 125 16 
z
" transform="scale(0.015625)"/>
       </defs>
       <use xlink:href="#MicrosoftYaHei-17"/>
       <use xlink:href="#MicrosoftYaHei-1a" transform="translate(58.640625 0)"/>
       <use xlink:href="#MicrosoftYaHei-14" transform="translate(117.28125 0)"/>
       <use xlink:href="#MicrosoftYaHei-3" transform="translate(141.359375 0)"/>
       <use xlink:href="#MicrosoftYaHei-606" transform="translate(170.953125 0)"/>
       <use xlink:href="#MicrosoftYaHei-8ff" transform="translate(270.953125 0)"/>
      </g>
     </g>
    </g>
    <g id="ytick_15">
     <g id="line2d_21">
      <g>
       <use xlink:href="#mc823661dfc" x="68.92" y="48.218305" style="stroke: #000000; stroke-width: 0.8"/>
      </g>
     </g>
     <g id="text_21">
      <!-- 15. 时代 -->
      <g transform="translate(24.824688 52.376117) scale(0.1 -0.1)">
       <defs>
        <path id="MicrosoftYaHei-79e" d="M 344 4728 
L 2500 4728 
L 2500 -366 
L 2006 -366 
L 2006 153 
L 838 153 
L 838 -441 
L 344 -441 
L 344 4728 
z
M 2706 3941 
L 4925 3941 
L 4925 5322 
L 5425 5322 
L 5425 3941 
L 6313 3941 
L 6313 3478 
L 5425 3478 
L 5425 116 
Q 5425 -722 4625 -722 
Q 4263 -722 3563 -703 
Q 3531 -478 3463 -178 
Q 4119 -228 4488 -228 
Q 4925 -228 4925 216 
L 4925 3478 
L 2706 3478 
L 2706 3941 
z
M 838 616 
L 2006 616 
L 2006 2234 
L 838 2234 
L 838 616 
z
M 2006 4266 
L 838 4266 
L 838 2684 
L 2006 2684 
L 2006 4266 
z
M 3406 2878 
Q 3906 1966 4163 1422 
Q 4000 1347 3663 1172 
Q 3419 1766 2963 2653 
L 3406 2878 
z
" transform="scale(0.015625)"/>
        <path id="MicrosoftYaHei-457" d="M 1850 3141 
L 3328 3303 
Q 3253 4097 3225 5284 
L 3769 5284 
Q 3756 4350 3847 3359 
L 6138 3609 
L 6194 3147 
L 3897 2894 
Q 4250 306 5256 -209 
Q 5531 -322 5613 -28 
Q 5731 416 5813 978 
Q 6075 866 6313 797 
Q 6219 191 6088 -278 
Q 5919 -822 5419 -809 
Q 4881 -791 4394 -166 
Q 3669 678 3384 2838 
L 1925 2678 
L 1850 3141 
z
M 38 2322 
Q 1013 3634 1581 5322 
L 2081 5147 
Q 1803 4419 1500 3794 
L 1500 -841 
L 988 -841 
L 988 2834 
Q 631 2238 250 1759 
Q 163 2016 38 2322 
z
M 4344 4791 
L 4669 5122 
Q 5219 4703 5794 4191 
L 5413 3803 
Q 4888 4341 4344 4791 
z
" transform="scale(0.015625)"/>
       </defs>
       <use xlink:href="#MicrosoftYaHei-17"/>
       <use xlink:href="#MicrosoftYaHei-1b" transform="translate(58.640625 0)"/>
       <use xlink:href="#MicrosoftYaHei-14" transform="translate(117.28125 0)"/>
       <use xlink:href="#MicrosoftYaHei-3" transform="translate(141.359375 0)"/>
       <use xlink:href="#MicrosoftYaHei-79e" transform="translate(170.953125 0)"/>
       <use xlink:href="#MicrosoftYaHei-457" transform="translate(270.953125 0)"/>
      </g>
     </g>
    </g>
   </g>
   <g id="patch_18">
    <path d="M 68.92 331.545703 
L 68.92 28.32 
" style="fill: none; stroke: #000000; stroke-width: 0.8; stroke-linejoin: miter; stroke-linecap: square"/>
   </g>
   <g id="patch_19">
    <path d="M 68.92 331.545703 
L 478.8 331.545703 
" style="fill: none; stroke: #000000; stroke-width: 0.8; stroke-linejoin: miter; stroke-linecap: square"/>
   </g>
   <g id="text_22">
    <!-- 2584 -->
    <g style="fill: #333333" transform="translate(439.650618 314.16107) scale(0.09 -0.09)">
     <defs>
      <path id="MicrosoftYaHei-Bold-18" d="M 1500 841 
L 3553 841 
L 3553 0 
L 334 0 
L 334 359 
Q 334 738 473 1050 
Q 613 1363 856 1633 
Q 1100 1903 1613 2266 
Q 2081 2616 2268 2886 
Q 2456 3156 2456 3459 
Q 2456 4113 1744 4113 
Q 1119 4113 550 3613 
L 550 4513 
Q 1184 4922 1975 4922 
Q 2700 4922 3122 4551 
Q 3544 4181 3544 3531 
Q 3544 3169 3422 2876 
Q 3300 2584 3069 2328 
Q 2838 2072 2328 1713 
Q 1838 1363 1669 1172 
Q 1500 981 1500 841 
z
" transform="scale(0.015625)"/>
      <path id="MicrosoftYaHei-Bold-1b" d="M 541 125 
L 541 997 
Q 1044 691 1613 691 
Q 2041 691 2283 902 
Q 2525 1113 2525 1472 
Q 2525 2225 1494 2225 
Q 1113 2225 616 2169 
L 797 4841 
L 3359 4841 
L 3359 4009 
L 1613 4009 
L 1544 2991 
Q 1803 3013 2022 3013 
Q 2731 3013 3142 2625 
Q 3553 2238 3553 1575 
Q 3553 844 3056 380 
Q 2559 -84 1706 -84 
Q 1016 -84 541 125 
z
" transform="scale(0.015625)"/>
      <path id="MicrosoftYaHei-Bold-1e" d="M 269 1303 
Q 269 1725 512 2053 
Q 756 2381 1219 2534 
Q 850 2719 648 3003 
Q 447 3288 447 3634 
Q 447 3997 645 4292 
Q 844 4588 1200 4755 
Q 1556 4922 1997 4922 
Q 2441 4922 2800 4758 
Q 3159 4594 3359 4298 
Q 3559 4003 3559 3647 
Q 3559 3309 3339 3018 
Q 3119 2728 2747 2559 
Q 3200 2403 3453 2076 
Q 3706 1750 3706 1313 
Q 3706 697 3228 309 
Q 2750 -78 1988 -78 
Q 1225 -78 747 309 
Q 269 697 269 1303 
z
M 1278 1394 
Q 1278 1056 1472 853 
Q 1666 650 1991 650 
Q 2303 650 2503 853 
Q 2703 1056 2703 1394 
Q 2703 1709 2500 1920 
Q 2297 2131 1991 2131 
Q 1675 2131 1476 1920 
Q 1278 1709 1278 1394 
z
M 1428 3531 
Q 1428 3266 1592 3077 
Q 1756 2888 2006 2888 
Q 2247 2888 2415 3072 
Q 2584 3256 2584 3531 
Q 2584 3806 2420 3997 
Q 2256 4188 2006 4188 
Q 1750 4188 1589 3997 
Q 1428 3806 1428 3531 
z
" transform="scale(0.015625)"/>
      <path id="MicrosoftYaHei-Bold-1a" d="M 3184 4841 
L 3184 1766 
L 3869 1766 
L 3869 1031 
L 3184 1031 
L 3184 0 
L 2266 0 
L 2266 1031 
L 103 1031 
L 103 1772 
Q 775 2522 1362 3359 
Q 1950 4197 2250 4841 
L 3184 4841 
z
M 997 1766 
L 2266 1766 
L 2266 3541 
Q 2116 3259 1836 2859 
Q 1556 2459 997 1766 
z
" transform="scale(0.015625)"/>
     </defs>
     <use xlink:href="#MicrosoftYaHei-Bold-18"/>
     <use xlink:href="#MicrosoftYaHei-Bold-1b" transform="translate(61.671875 0)"/>
     <use xlink:href="#MicrosoftYaHei-Bold-1e" transform="translate(123.34375 0)"/>
     <use xlink:href="#MicrosoftYaHei-Bold-1a" transform="translate(185.015625 0)"/>
    </g>
   </g>
   <g id="text_23">
    <!-- 2260 -->
    <g style="fill: #333333" transform="translate(393.255593 295.344706) scale(0.09 -0.09)">
     <defs>
      <path id="MicrosoftYaHei-Bold-1c" d="M 3378 3938 
Q 3009 4147 2575 4147 
Q 2016 4147 1680 3708 
Q 1344 3269 1344 2572 
L 1363 2572 
Q 1709 3103 2391 3103 
Q 3000 3103 3358 2686 
Q 3716 2269 3716 1600 
Q 3716 869 3250 392 
Q 2784 -84 2059 -84 
Q 1228 -84 786 516 
Q 344 1116 344 2159 
Q 344 3388 917 4155 
Q 1491 4922 2513 4922 
Q 3063 4922 3378 4791 
L 3378 3938 
z
M 1378 1591 
Q 1378 1216 1565 953 
Q 1753 691 2059 691 
Q 2369 691 2547 931 
Q 2725 1172 2725 1534 
Q 2725 2350 2053 2350 
Q 1750 2350 1564 2134 
Q 1378 1919 1378 1591 
z
" transform="scale(0.015625)"/>
      <path id="MicrosoftYaHei-Bold-16" d="M 244 2341 
Q 244 3597 706 4259 
Q 1169 4922 2044 4922 
Q 3713 4922 3713 2453 
Q 3713 1238 3259 577 
Q 2806 -84 1950 -84 
Q 244 -84 244 2341 
z
M 1266 2366 
Q 1266 691 1981 691 
Q 2684 691 2684 2416 
Q 2684 4147 2000 4147 
Q 1266 4147 1266 2366 
z
" transform="scale(0.015625)"/>
     </defs>
     <use xlink:href="#MicrosoftYaHei-Bold-18"/>
     <use xlink:href="#MicrosoftYaHei-Bold-18" transform="translate(61.671875 0)"/>
     <use xlink:href="#MicrosoftYaHei-Bold-1c" transform="translate(123.34375 0)"/>
     <use xlink:href="#MicrosoftYaHei-Bold-16" transform="translate(185.015625 0)"/>
    </g>
   </g>
   <g id="text_24">
    <!-- 2252 -->
    <g style="fill: #333333" transform="translate(392.110036 276.528343) scale(0.09 -0.09)">
     <use xlink:href="#MicrosoftYaHei-Bold-18"/>
     <use xlink:href="#MicrosoftYaHei-Bold-18" transform="translate(61.671875 0)"/>
     <use xlink:href="#MicrosoftYaHei-Bold-1b" transform="translate(123.34375 0)"/>
     <use xlink:href="#MicrosoftYaHei-Bold-18" transform="translate(185.015625 0)"/>
    </g>
   </g>
   <g id="text_25">
    <!-- 2246 -->
    <g style="fill: #333333" transform="translate(391.250869 257.711979) scale(0.09 -0.09)">
     <use xlink:href="#MicrosoftYaHei-Bold-18"/>
     <use xlink:href="#MicrosoftYaHei-Bold-18" transform="translate(61.671875 0)"/>
     <use xlink:href="#MicrosoftYaHei-Bold-1a" transform="translate(123.34375 0)"/>
     <use xlink:href="#MicrosoftYaHei-Bold-1c" transform="translate(185.015625 0)"/>
    </g>
   </g>
   <g id="text_26">
    <!-- 2233 -->
    <g style="fill: #333333" transform="translate(389.38934 238.895615) scale(0.09 -0.09)">
     <defs>
      <path id="MicrosoftYaHei-Bold-19" d="M 494 1053 
Q 978 691 1625 691 
Q 2034 691 2275 872 
Q 2516 1053 2516 1388 
Q 2516 1731 2230 1912 
Q 1944 2094 1428 2094 
L 997 2094 
L 997 2872 
L 1394 2872 
Q 2369 2872 2369 3528 
Q 2369 4147 1622 4147 
Q 1134 4147 675 3828 
L 675 4663 
Q 1175 4922 1853 4922 
Q 2541 4922 2969 4605 
Q 3397 4288 3397 3725 
Q 3397 2775 2434 2531 
L 2434 2516 
Q 2941 2459 3244 2145 
Q 3547 1831 3547 1381 
Q 3547 691 3042 303 
Q 2538 -84 1697 -84 
Q 950 -84 494 163 
L 494 1053 
z
" transform="scale(0.015625)"/>
     </defs>
     <use xlink:href="#MicrosoftYaHei-Bold-18"/>
     <use xlink:href="#MicrosoftYaHei-Bold-18" transform="translate(61.671875 0)"/>
     <use xlink:href="#MicrosoftYaHei-Bold-19" transform="translate(123.34375 0)"/>
     <use xlink:href="#MicrosoftYaHei-Bold-19" transform="translate(185.015625 0)"/>
    </g>
   </g>
   <g id="text_27">
    <!-- 2197 -->
    <g style="fill: #333333" transform="translate(384.234338 220.079251) scale(0.09 -0.09)">
     <defs>
      <path id="MicrosoftYaHei-Bold-17" d="M 2716 4947 
L 2716 0 
L 1700 0 
L 1700 3809 
Q 1513 3647 1188 3517 
Q 863 3388 591 3356 
L 591 4222 
Q 1447 4472 2072 4947 
L 2716 4947 
z
" transform="scale(0.015625)"/>
      <path id="MicrosoftYaHei-Bold-1f" d="M 544 941 
Q 931 691 1456 691 
Q 2628 691 2653 2216 
L 2634 2222 
Q 2316 1731 1650 1731 
Q 1047 1731 658 2154 
Q 269 2578 269 3222 
Q 269 3978 737 4450 
Q 1206 4922 1959 4922 
Q 2744 4922 3191 4325 
Q 3638 3728 3638 2659 
Q 3638 1391 3098 653 
Q 2559 -84 1547 -84 
Q 975 -84 544 100 
L 544 941 
z
M 1259 3313 
Q 1259 2928 1445 2709 
Q 1631 2491 1953 2491 
Q 2241 2491 2427 2700 
Q 2613 2909 2613 3219 
Q 2613 3591 2427 3869 
Q 2241 4147 1928 4147 
Q 1625 4147 1442 3906 
Q 1259 3666 1259 3313 
z
" transform="scale(0.015625)"/>
      <path id="MicrosoftYaHei-Bold-1d" d="M 3675 4225 
Q 3088 3172 2798 2528 
Q 2509 1884 2328 1275 
Q 2147 666 2050 0 
L 966 0 
Q 1122 947 1517 1917 
Q 1913 2888 2609 4009 
L 300 4009 
L 300 4841 
L 3675 4841 
L 3675 4225 
z
" transform="scale(0.015625)"/>
     </defs>
     <use xlink:href="#MicrosoftYaHei-Bold-18"/>
     <use xlink:href="#MicrosoftYaHei-Bold-17" transform="translate(61.671875 0)"/>
     <use xlink:href="#MicrosoftYaHei-Bold-1f" transform="translate(123.34375 0)"/>
     <use xlink:href="#MicrosoftYaHei-Bold-1d" transform="translate(185.015625 0)"/>
    </g>
   </g>
   <g id="text_28">
    <!-- 1868 -->
    <g style="fill: #333333" transform="translate(337.12334 201.262887) scale(0.09 -0.09)">
     <use xlink:href="#MicrosoftYaHei-Bold-17"/>
     <use xlink:href="#MicrosoftYaHei-Bold-1e" transform="translate(61.671875 0)"/>
     <use xlink:href="#MicrosoftYaHei-Bold-1c" transform="translate(123.34375 0)"/>
     <use xlink:href="#MicrosoftYaHei-Bold-1e" transform="translate(185.015625 0)"/>
    </g>
   </g>
   <g id="text_29">
    <!-- 1699 -->
    <g style="fill: #333333" transform="translate(312.923466 182.446523) scale(0.09 -0.09)">
     <use xlink:href="#MicrosoftYaHei-Bold-17"/>
     <use xlink:href="#MicrosoftYaHei-Bold-1c" transform="translate(61.671875 0)"/>
     <use xlink:href="#MicrosoftYaHei-Bold-1f" transform="translate(123.34375 0)"/>
     <use xlink:href="#MicrosoftYaHei-Bold-1f" transform="translate(185.015625 0)"/>
    </g>
   </g>
   <g id="text_30">
    <!-- 1656 -->
    <g style="fill: #333333" transform="translate(306.766101 163.63016) scale(0.09 -0.09)">
     <use xlink:href="#MicrosoftYaHei-Bold-17"/>
     <use xlink:href="#MicrosoftYaHei-Bold-1c" transform="translate(61.671875 0)"/>
     <use xlink:href="#MicrosoftYaHei-Bold-1b" transform="translate(123.34375 0)"/>
     <use xlink:href="#MicrosoftYaHei-Bold-1c" transform="translate(185.015625 0)"/>
    </g>
   </g>
   <g id="text_31">
    <!-- 1501 -->
    <g style="fill: #333333" transform="translate(284.57095 144.813796) scale(0.09 -0.09)">
     <use xlink:href="#MicrosoftYaHei-Bold-17"/>
     <use xlink:href="#MicrosoftYaHei-Bold-1b" transform="translate(61.671875 0)"/>
     <use xlink:href="#MicrosoftYaHei-Bold-16" transform="translate(123.34375 0)"/>
     <use xlink:href="#MicrosoftYaHei-Bold-17" transform="translate(185.015625 0)"/>
    </g>
   </g>
   <g id="text_32">
    <!-- 1449 -->
    <g style="fill: #333333" transform="translate(277.124835 125.997432) scale(0.09 -0.09)">
     <use xlink:href="#MicrosoftYaHei-Bold-17"/>
     <use xlink:href="#MicrosoftYaHei-Bold-1a" transform="translate(61.671875 0)"/>
     <use xlink:href="#MicrosoftYaHei-Bold-1a" transform="translate(123.34375 0)"/>
     <use xlink:href="#MicrosoftYaHei-Bold-1f" transform="translate(185.015625 0)"/>
    </g>
   </g>
   <g id="text_33">
    <!-- 1428 -->
    <g style="fill: #333333" transform="translate(274.11775 107.181068) scale(0.09 -0.09)">
     <use xlink:href="#MicrosoftYaHei-Bold-17"/>
     <use xlink:href="#MicrosoftYaHei-Bold-1a" transform="translate(61.671875 0)"/>
     <use xlink:href="#MicrosoftYaHei-Bold-18" transform="translate(123.34375 0)"/>
     <use xlink:href="#MicrosoftYaHei-Bold-1e" transform="translate(185.015625 0)"/>
    </g>
   </g>
   <g id="text_34">
    <!-- 1271 -->
    <g style="fill: #333333" transform="translate(251.63621 88.364704) scale(0.09 -0.09)">
     <use xlink:href="#MicrosoftYaHei-Bold-17"/>
     <use xlink:href="#MicrosoftYaHei-Bold-18" transform="translate(61.671875 0)"/>
     <use xlink:href="#MicrosoftYaHei-Bold-1d" transform="translate(123.34375 0)"/>
     <use xlink:href="#MicrosoftYaHei-Bold-17" transform="translate(185.015625 0)"/>
    </g>
   </g>
   <g id="text_35">
    <!-- 1265 -->
    <g style="fill: #333333" transform="translate(250.777043 69.54834) scale(0.09 -0.09)">
     <use xlink:href="#MicrosoftYaHei-Bold-17"/>
     <use xlink:href="#MicrosoftYaHei-Bold-18" transform="translate(61.671875 0)"/>
     <use xlink:href="#MicrosoftYaHei-Bold-1c" transform="translate(123.34375 0)"/>
     <use xlink:href="#MicrosoftYaHei-Bold-1b" transform="translate(185.015625 0)"/>
    </g>
   </g>
   <g id="text_36">
    <!-- 1237 -->
    <g style="fill: #333333" transform="translate(246.767596 50.731977) scale(0.09 -0.09)">
     <use xlink:href="#MicrosoftYaHei-Bold-17"/>
     <use xlink:href="#MicrosoftYaHei-Bold-18" transform="translate(61.671875 0)"/>
     <use xlink:href="#MicrosoftYaHei-Bold-19" transform="translate(123.34375 0)"/>
     <use xlink:href="#MicrosoftYaHei-Bold-1d" transform="translate(185.015625 0)"/>
    </g>
   </g>
   <g id="text_37">
    <!-- 正文高频词 Top 15 -->
    <g transform="translate(213.105469 22.32) scale(0.14 -0.14)">
     <defs>
      <path id="MicrosoftYaHei-Bold-814" d="M 138 303 
L 1050 303 
L 1050 3397 
L 1975 3397 
L 1975 303 
L 3056 303 
L 3056 4078 
L 388 4078 
L 388 4934 
L 6056 4934 
L 6056 4078 
L 4000 4078 
L 4000 2709 
L 5838 2709 
L 5838 1859 
L 4000 1859 
L 4000 303 
L 6263 303 
L 6263 -553 
L 138 -553 
L 138 303 
z
" transform="scale(0.015625)"/>
      <path id="MicrosoftYaHei-Bold-767" d="M 169 4353 
L 2781 4353 
Q 2684 4672 2519 5141 
L 3475 5334 
Q 3709 4713 3831 4353 
L 6213 4353 
L 6213 3509 
L 5284 3509 
Q 4813 2091 3925 1113 
Q 4888 447 6300 97 
Q 5781 -534 5613 -822 
Q 4184 -344 3188 441 
Q 2184 -316 725 -859 
Q 388 -316 100 47 
Q 1503 484 2450 1128 
Q 1550 2131 1175 3509 
L 169 3509 
L 169 4353 
z
M 4222 3509 
L 2141 3509 
Q 2463 2484 3184 1738 
Q 3913 2488 4222 3509 
z
" transform="scale(0.015625)"/>
      <path id="MicrosoftYaHei-Bold-bb3" d="M 138 4853 
L 2734 4853 
Q 2647 5063 2569 5234 
L 3575 5384 
Q 3688 5103 3778 4853 
L 6275 4853 
L 6275 4216 
L 138 4216 
L 138 4853 
z
M 1031 2553 
L 1031 3953 
L 5394 3953 
L 5394 2553 
L 1031 2553 
z
M 4556 3091 
L 4556 3416 
L 1869 3416 
L 1869 3091 
L 4556 3091 
z
M 438 2284 
L 6000 2284 
L 6000 222 
Q 6000 -225 5825 -469 
Q 5650 -713 5356 -764 
Q 5063 -816 4156 -816 
Q 4088 -434 3994 -84 
Q 4350 -116 4756 -116 
Q 5175 -116 5175 291 
L 5175 1659 
L 1263 1659 
L 1263 -797 
L 438 -797 
L 438 2284 
z
M 1806 -228 
L 1806 1384 
L 4619 1384 
L 4619 -34 
L 2556 -34 
L 2556 -228 
L 1806 -228 
z
M 3869 491 
L 3869 859 
L 2556 859 
L 2556 491 
L 3869 491 
z
" transform="scale(0.015625)"/>
      <path id="MicrosoftYaHei-Bold-b97" d="M 2600 2041 
L 3181 1678 
L 3181 3816 
L 4031 3816 
L 4131 4316 
L 3025 4316 
L 3025 5066 
L 6294 5066 
L 6294 4316 
L 4931 4316 
L 4819 3816 
L 6100 3816 
L 6100 703 
L 5363 703 
L 5363 3066 
L 3919 3066 
L 3919 703 
L 3181 703 
L 3181 1516 
Q 2306 -141 550 -891 
Q 381 -591 63 -141 
Q 1069 172 1738 803 
L 1406 803 
L 1406 2441 
L 2169 2441 
L 2169 1322 
Q 2369 1628 2600 2041 
z
M 88 3203 
L 369 3203 
L 369 4747 
L 1119 4747 
L 1119 3203 
L 1494 3203 
L 1494 5303 
L 2256 5303 
L 2256 4453 
L 2913 4453 
L 2913 3778 
L 2256 3778 
L 2256 3203 
L 3019 3203 
L 3019 2528 
L 88 2528 
L 88 3203 
z
M 4281 2791 
L 5013 2791 
L 5013 2559 
Q 5013 1497 4831 853 
Q 5688 284 6344 -266 
L 5813 -872 
Q 5244 -347 4525 184 
Q 4113 -397 3238 -909 
Q 2938 -541 2656 -253 
Q 3719 209 4025 822 
Q 4281 1334 4281 2572 
L 4281 2791 
z
M 619 2159 
L 1281 1934 
Q 994 1097 688 491 
Q 344 684 44 803 
Q 319 1291 619 2159 
z
" transform="scale(0.015625)"/>
      <path id="MicrosoftYaHei-Bold-a6e" d="M 1056 5322 
Q 1488 4759 1863 4172 
L 1056 3697 
Q 700 4328 300 4884 
L 1056 5322 
z
M 6031 422 
Q 6031 -78 5873 -361 
Q 5716 -644 5420 -712 
Q 5125 -781 3969 -803 
Q 3894 -353 3788 134 
Q 4225 97 4563 97 
Q 4922 97 5048 245 
Q 5175 394 5175 647 
L 5175 4272 
L 2125 4272 
L 2125 5072 
L 6031 5072 
L 6031 422 
z
M 4844 3072 
L 1956 3072 
L 1956 3853 
L 4844 3853 
L 4844 3072 
z
M 1913 1134 
Q 1938 572 1994 166 
Q 1400 -328 938 -766 
L 463 -141 
Q 619 47 619 353 
L 619 2422 
L 113 2422 
L 113 3234 
L 1463 3234 
L 1463 766 
L 1913 1134 
z
M 4638 2659 
L 4638 472 
L 2925 472 
L 2925 78 
L 2119 78 
L 2119 2659 
L 4638 2659 
z
M 2925 1934 
L 2925 1197 
L 3831 1197 
L 3831 1934 
L 2925 1934 
z
" transform="scale(0.015625)"/>
      <path id="MicrosoftYaHei-Bold-3" transform="scale(0.015625)"/>
      <path id="MicrosoftYaHei-Bold-3a" d="M 3900 3997 
L 2519 3997 
L 2519 0 
L 1484 0 
L 1484 3997 
L 106 3997 
L 106 4841 
L 3900 4841 
L 3900 3997 
z
" transform="scale(0.015625)"/>
      <path id="MicrosoftYaHei-Bold-55" d="M 253 1713 
Q 253 2566 764 3053 
Q 1275 3541 2138 3541 
Q 2972 3541 3462 3061 
Q 3953 2581 3953 1772 
Q 3953 922 3450 419 
Q 2947 -84 2088 -84 
Q 1244 -84 748 398 
Q 253 881 253 1713 
z
M 1275 1725 
Q 1275 691 2119 691 
Q 2928 691 2928 1753 
Q 2928 2766 2113 2766 
Q 1716 2766 1495 2494 
Q 1275 2222 1275 1725 
z
" transform="scale(0.015625)"/>
      <path id="MicrosoftYaHei-Bold-56" d="M 1469 416 
L 1469 -1591 
L 459 -1591 
L 459 3456 
L 1469 3456 
L 1469 2928 
L 1481 2928 
Q 1878 3541 2603 3541 
Q 3263 3541 3634 3080 
Q 4006 2619 4006 1825 
Q 4006 959 3575 437 
Q 3144 -84 2444 -84 
Q 1809 -84 1481 416 
L 1469 416 
z
M 1453 1528 
Q 1453 1159 1653 925 
Q 1853 691 2172 691 
Q 2550 691 2761 984 
Q 2972 1278 2972 1816 
Q 2972 2766 2231 2766 
Q 1888 2766 1670 2503 
Q 1453 2241 1453 1828 
L 1453 1528 
z
" transform="scale(0.015625)"/>
     </defs>
     <use xlink:href="#MicrosoftYaHei-Bold-814"/>
     <use xlink:href="#MicrosoftYaHei-Bold-767" transform="translate(100 0)"/>
     <use xlink:href="#MicrosoftYaHei-Bold-bb3" transform="translate(200 0)"/>
     <use xlink:href="#MicrosoftYaHei-Bold-b97" transform="translate(300 0)"/>
     <use xlink:href="#MicrosoftYaHei-Bold-a6e" transform="translate(400 0)"/>
     <use xlink:href="#MicrosoftYaHei-Bold-3" transform="translate(500 0)"/>
     <use xlink:href="#MicrosoftYaHei-Bold-3a" transform="translate(529.78125 0)"/>
     <use xlink:href="#MicrosoftYaHei-Bold-55" transform="translate(582.46875 0)"/>
     <use xlink:href="#MicrosoftYaHei-Bold-56" transform="translate(648.1875 0)"/>
     <use xlink:href="#MicrosoftYaHei-Bold-3" transform="translate(714.796875 0)"/>
     <use xlink:href="#MicrosoftYaHei-Bold-17" transform="translate(744.578125 0)"/>
     <use xlink:href="#MicrosoftYaHei-Bold-1b" transform="translate(806.25 0)"/>
    </g>
   </g>
  </g>
 </g>
 <defs>
  <clipPath id="p7756e11e22">
   <rect x="68.92" y="28.32" width="409.88" height="303.225703"/>
  </clipPath>
 </defs>
</svg>
